# xmcd
#
# Track frame offsets:
#	150
#	11147
#	21325
#	33470
#	43600
#	55655
#	71160
#	83427
#	95432
#	108380
#	125212
#	138155
#	155075
#	164570
#	178355
#	187465
#	197630
#	208352
#	219170
#	231662
#	242945
#	255070
#
# Disc length: 3554 seconds
#
# Revision: 2
# Processed by: cddbd v1.5.2PL0 Copyright (c) Steve Scherf et al.
# Submitted via: audiograbber 1.83.01
#
DISCID=4d0de016
DTITLE=Various Artist - Classic country
DYEAR=1900
DGENRE=Country
TTITLE0=Jim Reeves - He'll have to go
TTITLE1=Charley Pride - Is anybody going to San Antone
TTITLE2=Dolly Parton - Jolene
TTITLE3=Waylon Jennings - Ruby, don't take your love to town
TTITLE4=Willie Nelson - Funny how time slips away
TTITLE5=Dottie West - Delta down
TTITLE6=Bobby Bare - 500 miles away from home
TTITLE7=Don Gibson - I can't stop loving you
TTITLE8=Skeeter Davis - Put it off until tomorrow
TTITLE9=Tom T Hall - Mr Bojangles
TTITLE10=George Hamilton IV - Early morning rain
TTITLE11=Bobby Bare - Son of hickory holler's tramp
TTITLE12=Jim Reeves - I know one
TTITLE13=Dolly Parton - Two doors down
TTITLE14=Charley Pride - Honky tonk blues
TTITLE15=George Hamilton IV - Abilene
TTITLE16=Ronnie Milsap - Pure love
TTITLE17=Porter Wagoner - Green green grass of home
TTITLE18=Hank Snow - I'm movin' on
TTITLE19=Hank Locklin - Send me the pillow you dream on
TTITLE20=Eddy Arnold - Make the world go away
TTITLE21=Skeeter Davis - My last date
EXTD=
EXTT0=J and A Allison\n1959
EXTT1=Martin - Kirby\n1970
EXTT2=D. Parton\n1973
EXTT3=M. Tillis\n1974
EXTT4=W. Nelson\n1965
EXTT5=Harvey - Collins\n1973
EXTT6=B. Bare - C. Williams - H. West\n1963
EXTT7=D. Gibson\n1958
EXTT8=Parton - Owens\n1972
EXTT9=Walker\n1978
EXTT10=G. Lightfood\n1969
EXTT11=Frazier\n1969
EXTT12=J. Clement\n1964
EXTT13=D. Parton\n1977
EXTT14=H. Williams\n1980
EXTT15=Arr. John D. Loudermilk\n1963
EXTT16=E. Rabbitt\n1974
EXTT17=Curly Putman, Jr\n1965
EXTT18=Snow\n1956
EXTT19=H. Locklin\n1958
EXTT20=H. Cochran\n1965
EXTT21=Cramer - Bryant - Davis\n1972
PLAYORDER=
